{"title":"American Sniper (2014) BRrip.XviD - Italian English.Ac3.5.1.Sub.","uid":11891811,"size":2400738428,"categoryP":"video","categoryS":"movies","magnet":"?xt=urn:btih:30766255bbfbf2ccdcf677ccc83ccbec6491f62d&amp;dn=American+Sniper+%282014%29+BRrip.XviD+-+Italian+English.Ac3.5.1.Sub.&amp;tr=udp%3A%2F%2Ftracker.openbittorrent.com%3A80&amp;tr=udp%3A%2F%2Fopen.demonii.com%3A1337&amp;tr=udp%3A%2F%2Ftracker.coppersurfer.tk%3A6969&amp;tr=udp%3A%2F%2Fexodus.desync.com%3A6969","seeders":341,"leechers":81,"uploader":"robbyrs4","files":6,"time":1431016600,"description":"American Sniper (2014) BRrip.XviD - Italian English.Ac3.5.1.Sub.Ita.Eng.NUIta.MIRCrew\n\n[center]\n\n[color=red][b][img]http://s19.postimg.org/9qdjr7p77/Original_release_2.png[/img]\n\n[u]NO FOUND ONLY ORIGINAL RELEASE[/u]\n\nAmerican Sniper (2014)\n\n[img]http://i.imgur.com/asNtewn.png[/img]\n\n\n[URL=http://www.imdb.com/title/tt2179136/][IMG]http://www.userlogos.org/files/logos/Sucka/imdb_new.png[/IMG][/URL]  \n\n[img]http://s19.postimg.org/vz5tzn42b/1_scheda.png[/img]\n\nDATA USCITA: 01 gennaio 2015\nGENERE: Azione, Biografico\nANNO: 2014\nREGIA: Clint Eastwood\nSCENEGGIATURA: Jason Hall\nFOTOGRAFIA: Tom Stern\nMONTAGGIO: Joel Cox, Gary Roach\nPRODUZIONE: 22 &amp; Indiana Pictures, Mad Chance Productions, Malpaso Productions\nDISTRIBUZIONE: Warner Bros. Italia\nPAESE: USA\nDURATA: 132 Min\n\n[img]http://s19.postimg.org/q8fnlww2b/1_cast.png[/img]\n\nBradley Cooper, Sienna Miller, Cory Hardrict, Jake McDorman, Navid Negahban, Luke Grimes, Kyle Gallner, Owain Yeoman, Brian Hallisay, Sam Jaeger, Eric Close, Bill Miller, Max Charles, Tom Stern\n  \n[img]http://s19.postimg.org/okgi79i6r/1_trama.png[/img]. \n\nChris Kyle, un U.S. Navy SEAL che viene inviato in Iraq con una missione precisa: proteggere i suoi commilitoni. La sua massima precisione salva innumerevoli vite sul campo di battaglia e mentre si diffondono i racconti del suo grande coraggio, viene soprannominato &quot;Leggenda&quot;. Nel frattempo cresce la sua reputazione anche dietro le file nemiche, e viene messa una taglia sulla sua testa rendendolo il primario bersaglio per gli insorti...........\n\n[img]http://s19.postimg.org/fzn6g380j/1_story.png[/img]\n\nNavy SEAL sniper Chris Kyle's pinpoint accuracy saves countless lives on the battlefield and turns him into a legend. Back home to his wife and kids after four tours of duty, however, Chris finds that it is the war he can't leave behind.....\n &lt;a href=&quot;\nhttp://extraimago.com/images/2015/05/07/vlcsnap-2015-05-07-16h34m35s241.png[/img]&quot; rel=&quot;nofollow&quot; target=&quot;_NEW&quot;&gt;\nhttp://extraimago.com/images/2015/05/07/vlcsnap-2015-05-07-16h34m35s241.png[/img]&lt;/a&gt; &lt;a href=&quot;\nhttp://extraimago.com/images/2015/05/07/vlcsnap-2015-05-07-16h34m39s34.png[/img]&quot; rel=&quot;nofollow&quot; target=&quot;_NEW&quot;&gt;\nhttp://extraimago.com/images/2015/05/07/vlcsnap-2015-05-07-16h34m39s34.png[/img]&lt;/a&gt; &lt;a href=&quot;\nhttp://extraimago.com/images/2015/05/07/vlcsnap-2015-05-07-16h34m47s103.png[/img]&quot; rel=&quot;nofollow&quot; target=&quot;_NEW&quot;&gt;\nhttp://extraimago.com/images/2015/05/07/vlcsnap-2015-05-07-16h34m47s103.png[/img]&lt;/a&gt;\n\n[IMG]http://img153.imageshack.us/img153/3158/restateinseedblood.gif[/img]\n\n\n[img]http://imgur.com/lvhU6.gif[/img]\n\n\n[img]http://s19.postimg.org/a2jaz9qvn/1_dati.png[/img]\n\n\n[spoiler]\nGeneral\nComplete name                            : American Sniper (2014).ita.eng.sub.NUita.eng.MIRCrewAmerican Sniper (2014).ita.eng.sub.ita.eng.MIRCrew.avi\nFormat                                   : AVI\nFormat/Info                              : Audio Video Interleave\nFormat profile                           : OpenDML\nFile size                                : 2.24 GiB\nDuration                                 : 2h 12mn\nOverall bit rate                         : 2 412 Kbps\nMovie name                               : MIRCrew by robbyrs\nWriting application                      : VirtualDubMod 1.5.10.2 (build 2540/release)\nWriting library                          : VirtualDubMod build 2540/release\n\nVideo\nID                                       : 0\nFormat                                   : MPEG-4 Visual\nFormat profile                           : Simple@L3\nFormat settings, BVOP                    : No\nFormat settings, QPel                    : No\nFormat settings, GMC                     : No warppoints\nFormat settings, Matrix                  : Default (H.263)\nCodec ID                                 : XVID\nCodec ID/Hint                            : XviD\nDuration                                 : 2h 12mn\nBit rate                                 : 1 499 Kbps\nWidth                                    : 720 pixels\nHeight                                   : 300 pixels\nDisplay aspect ratio                     : 2.40:1\nFrame rate                               : 23.976 fps\nColor space                              : YUV\nChroma subsampling                       : 4:2:0\nBit depth                                : 8 bits\nScan type                                : Progressive\nCompression mode                         : Lossy\nBits/(Pixel*Frame)                       : 0.289\nStream size                              : 1.39 GiB (62%)\nWriting library                          : XviD 64\n\nAudio #1\nID                                       : 1\nFormat                                   : AC-3\nFormat/Info                              : Audio Coding 3\nMode extension                           : CM (complete main)\nCodec ID                                 : 2000\nDuration                                 : 2h 12mn\nBit rate mode                            : Constant\nBit rate                                 : 448 Kbps\nChannel(s)                               : 6 channels\nChannel positions                        : Front: L C R, Side: L R, LFE\nSampling rate                            : 48.0 KHz\nBit depth                                : 16 bits\nCompression mode                         : Lossy\nStream size                              : 425 MiB (19%)\nAlignment                                : Split accross interleaves\nInterleave, duration                     : 42 ms (1.00 video frame)\nInterleave, preload duration             : 500 ms\n\nAudio #2\nID                                       : 2\nFormat                                   : AC-3\nFormat/Info                              : Audio Coding 3\nMode extension                           : CM (complete main)\nCodec ID                                 : 2000\nDuration                                 : 2h 12mn\nBit rate mode                            : Constant\nBit rate                                 : 448 Kbps\nChannel(s)                               : 6 channels\nChannel positions                        : Front: L C R, Side: L R, LFE\nSampling rate                            : 48.0 KHz\nBit depth                                : 16 bits\nCompression mode                         : Lossy\nStream size                              : 425 MiB (19%)\nAlignment                                : Split accross interleaves\nInterleave, duration                     : 42 ms (1.00 video frame)\nInterleave, preload duration             : 500 ms\n\n\n[/spoiler]\n\n[/color][/b][/center]","torrent":{"xt":"urn:btih:30766255bbfbf2ccdcf677ccc83ccbec6491f62d","amp;dn":"American+Sniper+%282014%29+BRrip.XviD+-+Italian+English.Ac3.5.1.Sub.","amp;tr":["udp%3A%2F%2Ftracker.openbittorrent.com%3A80","udp%3A%2F%2Fopen.demonii.com%3A1337","udp%3A%2F%2Ftracker.coppersurfer.tk%3A6969","udp%3A%2F%2Fexodus.desync.com%3A6969"],"infoHash":"30766255bbfbf2ccdcf677ccc83ccbec6491f62d","infoHashBuffer":{"type":"Buffer","data":[48,118,98,85,187,251,242,204,220,246,119,204,200,60,203,236,100,145,246,45]},"announce":[],"urlList":[]}}